<?xml version="1.0" encoding="UTF-8"?>
<svg id="Layer_1" data-name="Layer 1" xmlns="http://www.w3.org/2000/svg" viewBox="0 0 657.04 125.6">
  <defs>
    <style>
      .cls-1 {
        fill: #007aab;
        stroke: #c8eaf4;
        stroke-miterlimit: 10;
        stroke-width: 5px;
      }
    </style>
  </defs>
  <path class="cls-1" d="M2.5,121.6V2.5h39.6c15.23,0,26.85,3.4,34.54,10.1,7.94,6.92,11.96,16.64,11.96,28.9,0,5.31-.81,10.48-2.4,15.36-1.67,5.13-4.47,9.8-8.31,13.88-3.88,4.12-8.97,7.35-15.12,9.62-5.94,2.19-13.2,3.29-21.57,3.29h-3.75v37.95H2.5ZM39.1,52.75c3.51,0,6.52-.42,8.92-1.25,1.82-.63,3.1-1.56,4.02-2.93.96-1.43,1.45-3.56,1.45-6.32,0-4.02-1.37-5.69-2.39-6.6-1.78-1.57-5.16-2.4-9.76-2.4h-3.9v19.5h1.65Z"/>
  <path class="cls-1" d="M128.05,123.1c-6.53,0-12.62-1.1-18.11-3.27-5.57-2.2-10.46-5.45-14.55-9.65-4.06-4.18-7.28-9.36-9.56-15.42-2.25-5.95-3.39-12.77-3.39-20.27,0-10.01,1.83-18.7,5.45-25.82,3.75-7.37,9.23-13.05,16.29-16.88,6.86-3.72,15.04-5.6,24.31-5.6,8.68,0,16.52,1.89,23.29,5.62,6.9,3.8,12.4,9.43,16.34,16.73,3.86,7.16,5.82,15.89,5.82,25.95,0,7.44-1.05,14.21-3.11,20.13-2.13,6.09-5.25,11.32-9.28,15.52-4.05,4.22-8.99,7.48-14.69,9.69-5.58,2.16-11.91,3.26-18.82,3.26ZM128.2,55.45c-4.74,0-6.53,1.92-7.57,3.6-2.05,3.32-3.08,8.52-3.08,15.45,0,4.69.49,8.7,1.47,11.91.79,2.62,1.95,4.57,3.45,5.79,1.36,1.11,3.28,1.65,5.88,1.65s4.37-.54,5.73-1.65c1.48-1.2,2.6-3.13,3.36-5.72.94-3.24,1.41-7.27,1.41-11.98s-.49-8.76-1.46-11.87c-.79-2.53-1.92-4.42-3.38-5.6-1.29-1.05-3.25-1.58-5.82-1.58Z"/>
  <path class="cls-1" d="M207.4,123.1c-5.67,0-10.86-.96-15.43-2.86-5.09-2.11-9.15-5.78-12.06-10.9-2.8-4.91-4.16-11.26-4.16-19.39v-33.45h-10.65v-18.82l13.41-8.17,7.18-19.21h24.41v17.4h22.95v28.8h-22.95v33.45c0,.71.08,1.97.61,2.43.25.22,1.01.87,3.14.87s4.06-.21,5.92-.61c2.13-.46,4.29-1.03,6.43-1.68l7.75-2.36v28.75l-3.69,1.54c-2.77,1.15-6.03,2.12-9.99,2.96-3.94.83-8.27,1.25-12.87,1.25Z"/>
  <path class="cls-1" d="M264.85,123.1c-6.68,0-12.68-1.26-17.83-3.75-5.47-2.64-9.79-6.76-12.83-12.24-2.94-5.28-4.43-12.01-4.43-20.02V27.7h34.8v53.7c0,5.64,1.09,8.39,2,9.7.39.56,1.28,1.85,4.9,1.85,3.18,0,5.52-.59,6.96-1.75,1.52-1.22,2.58-3.13,3.26-5.86.88-3.51,1.32-7.96,1.32-13.24V27.7h34.65v93.9h-27.99l-1.51-5.54c-.41.31-.83.62-1.26.91-3.22,2.19-6.79,3.79-10.6,4.75-3.62.92-7.47,1.38-11.45,1.38Z"/>
  <path class="cls-1" d="M422.35,121.6v-53.7c0-6.7-1.34-9.18-1.92-9.94-.63-.82-1.73-1.76-4.68-1.76-4.62,0-6.22,1.75-7.09,3.28-1.84,3.22-2.81,8.46-2.81,15.17v46.95h-34.65v-53.7c0-3.41-.34-6.13-1.02-8.09-.47-1.36-1.08-2.31-1.81-2.81-.76-.53-1.93-.8-3.47-.8-2.56,0-4.47.55-5.68,1.62-1.41,1.26-2.45,3.3-3.11,6.06-.84,3.52-1.26,8-1.26,13.31v44.4h-34.65V27.7h27.8l1.71,5.45c.07-.05.14-.11.21-.16,2.9-2.22,6.29-3.94,10.06-5.1,3.66-1.12,7.73-1.69,12.11-1.69,7.04,0,13.1,1.29,17.99,3.82,2.76,1.43,5.21,3.23,7.34,5.38,2.38-2.26,5.09-4.11,8.09-5.54,5.1-2.43,10.76-3.66,16.83-3.66,10.98,0,19.56,2.95,25.5,8.76,5.97,5.85,9,15.02,9,27.24v59.4h-34.5Z"/>
  <path class="cls-1" d="M460.74,121.6V2.5h41.4c12.18,0,22.79,2.2,31.54,6.55,9.03,4.49,16.05,11.2,20.88,19.95,4.73,8.57,7.12,19.08,7.12,31.25,0,13.28-2.58,24.62-7.67,33.69-5.19,9.24-12.59,16.27-22.01,20.9-9.14,4.49-20.1,6.76-32.57,6.76h-38.7ZM499.29,90.7c9.3,0,15.84-2.24,19.99-6.86,4.25-4.74,6.41-12.37,6.41-22.69,0-6.81-.96-12.39-2.85-16.59-1.71-3.81-4.17-6.54-7.52-8.37-3.59-1.95-8.23-2.94-13.78-2.94h-5.85v57.45h3.6Z"/>
  <path class="cls-1" d="M563.04,121.6V2.5h40.65c16.03,0,27.6,2.45,35.37,7.49,8.36,5.43,12.78,14.15,12.78,25.21,0,5.43-1.05,10.26-3.12,14.34-1.82,3.58-4.21,6.6-7.13,9.01,3.71,2.29,6.78,5.46,9.13,9.45,2.54,4.32,3.83,9.89,3.83,16.55,0,7.71-1.97,14.48-5.86,20.13-3.85,5.6-9.3,9.9-16.2,12.78-6.56,2.75-14.43,4.14-23.39,4.14h-46.05ZM606.54,91.45c6.9,0,9.19-1.6,9.85-2.29,1.57-1.63,2.3-3.66,2.3-6.41,0-1.69-.32-3.1-.99-4.32-.51-.92-1.54-1.75-3.07-2.44-1.34-.61-3.97-1.34-8.84-1.34h-7.8v16.8h8.55ZM604.89,45.4c6.95,0,9.02-1.48,9.5-1.93.82-.78,1.9-2.17,1.9-5.12,0-2.57-.83-3.48-1.74-4.07-1.09-.72-3.93-1.93-10.71-1.93h-5.85v13.05h6.9Z"/>
</svg>