<svg id="Layer_1" data-name="Layer 1" xmlns="http://www.w3.org/2000/svg" viewBox="0 0 624.15 108.6"><defs><style>.cls-1{fill:#ccdbee;}.cls-2{fill:#4c85d2;}</style></defs><path class="cls-1" d="M237.43,470.35h-23V382.3H185.53V363.25h80.85V382.3H237.43Z" transform="translate(-185.53 -363.25)"/><path class="cls-1" d="M337.78,429.25A54.88,54.88,0,0,1,335,447.4a36.16,36.16,0,0,1-7.95,13.35A34.08,34.08,0,0,1,314.53,469a45.77,45.77,0,0,1-16.65,2.85A42.84,42.84,0,0,1,282,469a35.09,35.09,0,0,1-12.45-8.25,38.12,38.12,0,0,1-8.25-13.35,51.13,51.13,0,0,1-3-18.15q0-13.63,4.8-23.1a32.67,32.67,0,0,1,13.8-14.32q9-4.87,21.45-4.88a41.59,41.59,0,0,1,20.4,4.88,34.72,34.72,0,0,1,13.95,14.32Q337.78,415.6,337.78,429.25Zm-56.4,0a47.44,47.44,0,0,0,1.72,13.65,17.3,17.3,0,0,0,5.4,8.7c2.45,2,5.68,3,9.68,3a14.51,14.51,0,0,0,9.52-3,16.88,16.88,0,0,0,5.33-8.7,49.46,49.46,0,0,0,1.65-13.65A46.51,46.51,0,0,0,313,415.6a17.12,17.12,0,0,0-5.32-8.47q-3.6-2.92-9.6-2.93-8.7,0-12.68,6.45T281.38,429.25Z" transform="translate(-185.53 -363.25)"/><path class="cls-1" d="M393.73,387c1.5,0,3.12.08,4.87.23a21.45,21.45,0,0,1,4.13.67L400.48,409c-1.1-.2-2.4-.39-3.9-.6a41.62,41.62,0,0,0-5.4-.3,24.73,24.73,0,0,0-7,1,19.26,19.26,0,0,0-6.52,3.45,17,17,0,0,0-4.8,6.3,23.74,23.74,0,0,0-1.8,9.9v41.55H348.43v-81.9h17.25l3.3,13.8h1a32.67,32.67,0,0,1,6-7.8,28.56,28.56,0,0,1,8.1-5.47A23.13,23.13,0,0,1,393.73,387Z" transform="translate(-185.53 -363.25)"/><path class="cls-1" d="M441.58,387q15.45,0,23.55,7.28t8.1,21.52v54.6H457.48l-4.35-11.1h-.6a41.59,41.59,0,0,1-7.13,7.2,23.49,23.49,0,0,1-8.47,4.13,46.22,46.22,0,0,1-11.7,1.27,29.09,29.09,0,0,1-12.9-2.77,20.67,20.67,0,0,1-9-8.48q-3.3-5.7-3.3-14.4,0-12.9,9.3-19.35t27.75-7.2l13.65-.45v-2.55q0-7.33-3.3-10.27t-9.3-2.93a38.66,38.66,0,0,0-11.4,1.8,101,101,0,0,0-11.55,4.35l-6.6-15.45a65.27,65.27,0,0,1,14.77-5.25A80.51,80.51,0,0,1,441.58,387Zm.6,45.9q-10.65.31-14.85,3.45a10.42,10.42,0,0,0-4.2,8.85c0,3.51,1,6.08,2.92,7.73a11.81,11.81,0,0,0,7.88,2.47,17.62,17.62,0,0,0,11.92-4.2c3.25-2.79,4.88-6.8,4.88-12V432.4Z" transform="translate(-185.53 -363.25)"/><path class="cls-1" d="M583.48,387q14.1,0,21.3,7.05T612,417v53.4h-22.5v-47.7q0-9.45-3.15-13.57T576.88,405q-8.7,0-12.3,6.38T561,429.4v41H538.33v-47.7a31.33,31.33,0,0,0-1.35-10,11.2,11.2,0,0,0-4.05-5.77A11.83,11.83,0,0,0,526,405q-6.15,0-9.68,3.15a17.25,17.25,0,0,0-5,9.15A64.78,64.78,0,0,0,510,432v38.4H487.33v-81.9h17.4L508,399h.75a25.26,25.26,0,0,1,5.92-6.45,25.69,25.69,0,0,1,8.18-4.12A35.23,35.23,0,0,1,533.23,387q9.15,0,15.22,3.15a23.07,23.07,0,0,1,9.53,9.15h.75a25.56,25.56,0,0,1,10.5-9.22A32.69,32.69,0,0,1,583.48,387Z" transform="translate(-185.53 -363.25)"/><path class="cls-2" d="M716.83,415q0,18.45-6.9,30.75A44.12,44.12,0,0,1,690.5,464.2q-12.53,6.17-29.92,6.15h-32.7V363.25h35.4q17,0,28.87,5.93a41.49,41.49,0,0,1,18.3,17.47Q716.83,398.22,716.83,415Zm-24,.9q0-11.55-3.38-19a23,23,0,0,0-10.12-11.17Q672.58,382,662.68,382H650.83v69.45h9.6q16.5,0,24.45-8.85T692.83,415.9Z" transform="translate(-185.53 -363.25)"/><path class="cls-2" d="M764.83,363.25q22,0,32.1,6.53T807,390a25.42,25.42,0,0,1-2.48,11.63,21.67,21.67,0,0,1-6.6,7.87,23.27,23.27,0,0,1-9.07,4.05v.75a34.09,34.09,0,0,1,10,3.75,21,21,0,0,1,7.8,7.8q3,5.1,3,13.5a28.77,28.77,0,0,1-4.8,16.73,30.15,30.15,0,0,1-13.58,10.65q-8.77,3.68-21.07,3.67H730.18V363.25Zm1.2,42.9q9.9,0,13.65-3.6a12.54,12.54,0,0,0,3.75-9.45q0-6.15-4.43-9.07t-14-2.93H753.13v25Zm-12.9,17.25v28.8h14.55q10.2,0,14.17-4.12a16,16,0,0,0,2.25-17.78,12,12,0,0,0-5.85-5q-4.12-1.87-11.32-1.88Z" transform="translate(-185.53 -363.25)"/></svg>